<svg width="65" height="65" viewBox="0 0 65 65" fill="none" xmlns="http://www.w3.org/2000/svg">
<path d="M32.5 65C50.4493 65 65 50.4493 65 32.5C65 14.5507 50.4493 0 32.5 0C14.5507 0 0 14.5507 0 32.5C0 50.4493 14.5507 65 32.5 65Z" fill="#F8B26A"/>
<path d="M23 33.4001C36.7 36.1001 51.1 33.2 65 33V32.5C65 30 64.7 27.5 64.1 25.1C61 25.3 57.9 25.4001 54.7 25.2001C50.7 24.9001 46.8 24.2001 42.9 24.9001L55.2 20.4001C57.3 19.6001 59.5 18.8 61.7 18.3C60.5 15.8 58.9 13.4 57.1 11.3C56.5 11.5 55.9 11.6 55.3 11.8C42.8 15.3 30.9 21.3 18 21.8C12.8 22 7.60001 21.3 2.50001 20.1C1.70001 21.9 1.20001 23.8 0.700012 25.8C2.30001 26.4 3.90001 27.1001 5.50001 27.7001C11.2 29.9001 17 32.2001 23 33.4001Z" fill="#F47E60"/>
<path d="M18 21.8C30.9 21.3 42.9 15.3 55.3 11.8C55.9 11.6 56.5 11.5 57.1 11.3C55.9 9.9 54.7 8.7 53.3 7.5C48 8.6 42.5 9.3 37.1 9.9C31.2 10.5 25.3 11 19.5 10.1C16.7 9.7 13.9 8.9 11.3 7.8C7.49999 11.1 4.39999 15.3 2.39999 20C7.59999 21.2 12.7 22 18 21.8Z" fill="#F8B26A"/>
<path d="M42.9 24.9001C46.8 24.2001 50.8 24.9001 54.7 25.2001C57.8 25.4001 60.9 25.4 64.1 25.1C63.5 22.7 62.7 20.5 61.7 18.3C59.5 18.8 57.3 19.6001 55.2 20.4001L42.9 24.9001Z" fill="#F8B26A"/>
<path d="M37.2 10C42.6 9.4 48.1 8.7 53.4 7.6C47.8 2.9 40.5 0 32.5 0C24.4 0 17 3 11.3 7.9C13.9 9 16.7 9.8 19.5 10.2C25.4 11.1 31.3 10.6 37.2 10Z" fill="#FFDC6C"/>
<path d="M33 56.4C28.7 57.4 25.1 60 22.3 63.4C25.5 64.5 28.9 65 32.5 65C39.4 65 45.8 62.8 51.1 59.1C45.1 57.1 39 55 33 56.4Z" fill="#FFDC6C"/>
<path d="M28 52.6C22.5 53.3 17.2 55.2 12.5 58.1C14.2 59.4 16.1 60.6 18 61.6C20.9 58 23.7 54.1 28 52.6Z" fill="#F8B26A"/>
<path d="M23 33.4001C17 32.2001 11.2 29.9001 5.5 27.7001C3.9 27.1001 2.3 26.4 0.700001 25.8C0.200001 28 0 30.2 0 32.5C0 35 0.3 37.5001 0.9 39.9001C5.4 39.2001 10.1 39.1 14.6 39.1H50C54.7 39.1 59.5 39.1001 64.2 39.7001C64.7 37.5001 65 35.3001 65 32.9001C51.1 33.2001 36.7 36.1001 23 33.4001Z" fill="#F8B26A"/>
<path d="M14.6 39.1C10.1 39.1 5.39999 39.2 0.899994 39.9C1.99999 44.6 4.09999 48.9 6.99999 52.6C24.4 45.5 43.7 43 62.4 45.4C63.2 43.6 63.8 41.7 64.2 39.8C59.5 39.2 54.8 39.2 50 39.2C38.2 39.1 26.4 39.1 14.6 39.1Z" fill="#FFDC6C"/>
<path d="M7 52.6C8.6 54.6 10.4 56.5 12.5 58.1C17.2 55.2 22.5 53.4 28 52.6C23.7 54.2 20.9 58 18 61.6C19.4 62.3 20.8 62.9 22.3 63.4C25.1 60 28.7 57.4 33 56.4C39 55.1 45.1 57.1 51.1 59.2C56 55.8 59.9 51 62.3 45.4C43.7 43 24.4 45.5 7 52.6Z" fill="#F47E60"/>
</svg>
