<?xml version="1.0"?><svg version="1.1" id="圖層_1" xmlns="http://www.w3.org/2000/svg" x="0" y="0" viewBox="0 0 100 100" xml:space="preserve"><g><circle cx="50" cy="50" r="32.5" fill="#f8b26a"/></g><path d="M40.5 50.9c13.7 2.7 28.1-.2 42-.4V50c0-2.5-.3-5-.9-7.4-3.1.2-6.2.3-9.4.1-4-.3-7.9-1-11.8-.3l12.3-4.5c2.1-.8 4.3-1.6 6.5-2.1-1.2-2.5-2.8-4.9-4.6-7-.6.2-1.2.3-1.8.5-12.5 3.5-24.4 9.5-37.3 10-5.2.2-10.4-.5-15.5-1.7-.8 1.8-1.3 3.7-1.8 5.7 1.6.6 3.2 1.3 4.8 1.9 5.7 2.2 11.5 4.5 17.5 5.7z" fill="#f47e60"/><path d="M35.5 39.3c12.9-.5 24.9-6.5 37.3-10 .6-.2 1.2-.3 1.8-.5-1.2-1.4-2.4-2.6-3.8-3.8-5.3 1.1-10.8 1.8-16.2 2.4-5.9.6-11.8 1.1-17.6.2-2.8-.4-5.6-1.2-8.2-2.3-3.8 3.3-6.9 7.5-8.9 12.2 5.2 1.2 10.3 2 15.6 1.8z" fill="#f8b26a"/><path d="M60.4 42.4c3.9-.7 7.9 0 11.8.3 3.1.2 6.2.2 9.4-.1-.6-2.4-1.4-4.6-2.4-6.8-2.2.5-4.4 1.3-6.5 2.1l-12.3 4.5z" fill="#f8b26a"/><path d="M54.7 27.5c5.4-.6 10.9-1.3 16.2-2.4-5.6-4.7-12.9-7.6-20.9-7.6-8.1 0-15.5 3-21.2 7.9 2.6 1.1 5.4 1.9 8.2 2.3 5.9.9 11.8.4 17.7-.2z" fill="#ffdc6c"/><path d="M50.5 73.9c-4.3 1-7.9 3.6-10.7 7C43 82 46.4 82.5 50 82.5c6.9 0 13.3-2.2 18.6-5.9-6-2-12.1-4.1-18.1-2.7z" fill="#ffdc6c"/><path d="M45.5 70.1c-5.5.7-10.8 2.6-15.5 5.5 1.7 1.3 3.6 2.5 5.5 3.5 2.9-3.6 5.7-7.5 10-9z" fill="#f8b26a"/><path d="M40.5 50.9c-6-1.2-11.8-3.5-17.5-5.7-1.6-.6-3.2-1.3-4.8-1.9-.5 2.2-.7 4.4-.7 6.7 0 2.5.3 5 .9 7.4 4.5-.7 9.2-.8 13.7-.8h35.4c4.7 0 9.5 0 14.2.6.5-2.2.8-4.4.8-6.8-13.9.3-28.3 3.2-42 .5z" fill="#f8b26a"/><path d="M32.1 56.6c-4.5 0-9.2.1-13.7.8 1.1 4.7 3.2 9 6.1 12.7 17.4-7.1 36.7-9.6 55.4-7.2.8-1.8 1.4-3.7 1.8-5.6-4.7-.6-9.4-.6-14.2-.6-11.8-.1-23.6-.1-35.4-.1z" fill="#ffdc6c"/><path d="M24.5 70.1c1.6 2 3.4 3.9 5.5 5.5 4.7-2.9 10-4.7 15.5-5.5-4.3 1.6-7.1 5.4-10 9 1.4.7 2.8 1.3 4.3 1.8 2.8-3.4 6.4-6 10.7-7 6-1.3 12.1.7 18.1 2.8 4.9-3.4 8.8-8.2 11.2-13.8-18.6-2.4-37.9.1-55.3 7.2z" fill="#f47e60"/><metadata xmlns:d="https://loading.io/stock/">
<d:name>venus</d:name>
<d:tags>star,solar system,planet,venus,astrology</d:tags>
<d:license>by</d:license>
<d:slug>byumg7</d:slug>
</metadata></svg>